<?xml version="1.0" encoding="UTF-8" standalone="no"?> <svg xmlns="http://www.w3.org/2000/svg" viewBox="0 0 48 48"><g id="Lamp"><path d="M35.12,6.5A15.835,15.835,0,0,0,11.553,8.118a16.737,16.737,0,0,0-3.18,13.837,15.8,15.8,0,0,0,4.714,8.352,8.8,8.8,0,0,1,2.89,6.4V39A3,3,0,0,0,18,41.822V42a4,4,0,0,0,4,4h4a4,4,0,0,0,4-4v-.187A3,3,0,0,0,31.992,39V36.911a9.208,9.208,0,0,1,2.954-6.665A16.222,16.222,0,0,0,40,18,15.864,15.864,0,0,0,35.12,6.5ZM17.977,38H29.992v1a1,1,0,0,1-1,1H18.979a1,1,0,0,1-1-1ZM21,25H20a1,1,0,1,1,1-1Zm2,2h2v9H23Zm3,17H22a2,2,0,0,1-2-2h8A2,2,0,0,1,26,44Zm7.579-15.213A11.259,11.259,0,0,0,30.041,36H27V27h1a3,3,0,1,0-3-3v1H23V24a3,3,0,1,0-3,3h1v9H17.938a10.865,10.865,0,0,0-3.491-7.16,13.645,13.645,0,0,1-4.118-7.3,14.744,14.744,0,0,1,2.8-12.188A13.749,13.749,0,0,1,23.494,4.008C23.659,4,23.824,4,23.988,4A14.007,14.007,0,0,1,38,18,14.275,14.275,0,0,1,33.579,28.787ZM27,25V24a1,1,0,1,1,1,1Z"/></g></svg>