<?xml version="1.0" encoding="utf-8"?>
<!-- Generator: Adobe Illustrator 16.0.0, SVG Export Plug-In . SVG Version: 6.00 Build 0)  -->
<!DOCTYPE svg PUBLIC "-//W3C//DTD SVG 1.1//EN" "http://www.w3.org/Graphics/SVG/1.1/DTD/svg11.dtd">
<svg version="1.1" id="Livello_1" xmlns="http://www.w3.org/2000/svg" xmlns:xlink="http://www.w3.org/1999/xlink" x="0px" y="0px"
	 width="100px" height="100px" viewBox="0 0 100 100" enable-background="new 0 0 100 100" xml:space="preserve">
<rect fill="none" width="100" height="100"/>
<path d="M74.936,50.101c-2.25,0-4.287,0.915-5.758,2.394c-0.521-0.051-1.248-0.147-1.977-0.331V33.095H48.303
	c-0.297-0.908-0.437-1.906-0.5-2.568c1.479-1.471,2.393-3.508,2.393-5.758c0-4.488-3.638-8.127-8.126-8.127
	c-4.488,0-8.126,3.639-8.126,8.127c0,2.25,0.916,4.287,2.393,5.758c-0.063,0.662-0.203,1.66-0.5,2.568H16.938v17.22
	c0.715-0.202,1.468-0.313,2.248-0.313c4.542,0,8.225,3.683,8.225,8.227c0,4.542-3.683,8.226-8.225,8.226
	c-0.78,0-1.533-0.111-2.248-0.313v17.219h17.871c-0.615-1.152-0.964-2.468-0.964-3.865c0-4.542,3.683-8.226,8.226-8.226
	s8.227,3.684,8.227,8.226c0,1.397-0.35,2.713-0.965,3.865h17.87V64.29c0.729-0.183,1.456-0.28,1.977-0.33
	c1.471,1.479,3.508,2.394,5.758,2.394c4.488,0,8.127-3.639,8.127-8.126C83.063,53.739,79.424,50.101,74.936,50.101z"/>
</svg>
